<svg width="626" height="169" viewBox="0 0 626 169" fill="none" xmlns="http://www.w3.org/2000/svg">
<g clip-path="url(#clip0_555_445)">
<path fill-rule="evenodd" clip-rule="evenodd" d="M32.0133 76.3359H16.8893V18.6012H32.0133V18.6319C47.94 18.6319 60.8653 31.5572 60.8653 47.4839C60.8653 63.4106 47.94 76.3359 32.0133 76.3359ZM32.0133 4.65323H0.65332V90.3146H32.0133C55.668 90.3146 74.844 71.1399 74.844 47.4839C74.844 23.8292 55.668 4.65323 32.0133 4.65323ZM562.931 53.3586C564.381 43.3999 570.165 38.5799 578.455 38.5799C587.236 38.5799 592.771 44.3612 594.103 53.3586H562.931ZM578.58 26.7959C569.331 26.7959 561.971 29.7932 556.312 35.7039C550.68 41.7039 547.897 49.5252 547.897 59.2652C547.897 69.1332 550.775 76.9546 556.433 82.8332C562.096 88.7399 569.547 91.7372 578.827 91.7372C593.609 91.7372 604.433 83.6959 607.679 71.0492H593.143C590.607 76.9546 585.904 79.9572 578.948 79.9572C569.793 79.9572 563.887 74.6666 562.805 63.9679H609.253V60.3506C609.253 50.3612 606.471 42.1972 600.937 36.0399C595.4 29.9186 587.949 26.7959 578.58 26.7959ZM530.705 28.2492H542.952V39.7826H530.705V73.3372C530.705 77.2959 532.621 78.7506 537.787 78.7506H542.952V90.3146C539.24 90.6559 536.58 90.7812 535.035 90.7812C521.676 90.7812 515.676 86.0786 515.676 74.9172V39.7826H506.027V28.2492H515.676V10.1906H530.705V28.2492ZM480.173 28.2492H495.328V90.3146H480.173V28.2492ZM495.203 20.1759H480.299V5.98124H495.203V20.1759ZM467.899 49.1532V90.3146H452.744V51.6892C452.744 43.8666 448.876 39.9092 441.084 39.9092C433.725 39.9092 427.231 45.3212 427.231 55.5266V90.3146H412.076V4.65323H427.231V36.5346C431.929 30.0439 438.303 26.7959 446.124 26.7959C459.484 26.7959 467.899 34.7439 467.899 49.1532ZM385.356 4.65323H402.212L378.493 90.3146H360.216L351.061 54.6906C347.816 41.1119 345.433 31.0012 344.104 24.3852C342.063 34.1239 339.775 44.2386 337.117 54.6906L327.993 90.3146H309.809L285.993 4.65323H302.975L311.879 39.1679C315.836 55.1852 318.467 66.1306 319.673 71.7892C321.836 61.5572 324.251 50.6079 327.033 39.0732L335.816 4.65323H352.515L361.297 39.0732C363.585 48.1972 366 59.1426 368.504 71.8839C370.452 63.2266 373.077 52.2772 376.327 39.1679L385.356 4.65323ZM264.689 73.8319C261.813 77.4212 257.855 79.2439 252.905 79.2439C247.987 79.2439 243.997 77.5426 241.245 74.0506C238.369 70.7079 236.916 65.7626 236.916 59.2652C236.916 46.2772 242.947 39.2892 252.905 39.2892C263.016 39.2892 268.925 45.9092 268.925 58.7706C268.925 65.2999 267.472 70.3399 264.689 73.8319ZM256.527 26.7959C247.74 26.7959 241.124 30.2879 236.672 37.1226V28.2492H222.133V113.88H237.288V82.2452C241.74 88.6146 248.112 91.7372 256.527 91.7372C265.057 91.7372 271.803 88.7399 276.843 82.8332C281.788 76.9546 284.296 69.1332 284.296 59.2652C284.296 49.3999 281.788 41.4572 276.843 35.5786C271.803 29.6719 265.057 26.7959 256.527 26.7959ZM166.068 53.3586C167.489 43.3999 173.275 38.5799 181.595 38.5799C190.345 38.5799 195.88 44.3612 197.208 53.3586H166.068ZM181.684 26.7959C172.44 26.7959 165.111 29.7932 159.448 35.7039C153.789 41.7039 151.037 49.5252 151.037 59.2652C151.037 69.1332 153.915 76.9546 159.573 82.8332C165.232 88.7399 172.687 91.7372 181.932 91.7372C196.745 91.7372 207.569 83.6959 210.815 71.0492H196.252C193.716 76.9546 189.044 79.9572 182.057 79.9572C172.903 79.9572 167.028 74.6666 165.941 63.9679H212.363V60.3506C212.363 50.3612 209.612 42.1972 204.075 36.0399C198.54 29.9186 191.087 26.7959 181.684 26.7959ZM97.724 53.3586C99.1773 43.3999 104.931 38.5799 113.247 38.5799C122.029 38.5799 127.567 44.3612 128.896 53.3586H97.724ZM113.372 26.7959C104.092 26.7959 96.764 29.7932 91.104 35.7039C85.4453 41.7039 82.6947 49.5252 82.6947 59.2652C82.6947 69.1332 85.5707 76.9546 91.2293 82.8332C96.8893 88.7399 104.343 91.7372 113.619 91.7372C128.401 91.7372 139.223 83.6959 142.471 71.0492H127.904C125.404 76.9546 120.701 79.9572 113.709 79.9572C104.585 79.9572 98.684 74.6666 97.5987 63.9679H144.051V60.3506C144.051 50.3612 141.268 42.1972 135.731 36.0399C130.192 29.9186 122.739 26.7959 113.372 26.7959Z" fill="#FFFFFF"/>
<path fill-rule="evenodd" clip-rule="evenodd" d="M8.6809 149.88H18.5369L18.3876 149.544C17.1929 146.595 15.5876 142.488 13.5342 137.262C11.9662 141.443 10.3982 145.55 8.7929 149.58L8.6809 149.88ZM22.7556 160.446L19.6569 152.718H7.5609L4.49957 160.446H1.21423L11.8169 133.864H15.3262L26.0782 160.446H22.7556Z" fill="#FFFFFF"/>
<path fill-rule="evenodd" clip-rule="evenodd" d="M28.804 154.323H31.828C32.164 157.198 33.5827 158.318 36.98 158.318C40.0787 158.318 41.6093 157.31 41.6093 155.331C41.6093 153.575 40.5267 152.83 37.204 152.195L35.412 151.859C31.4173 151.112 29.4013 149.208 29.4013 146.184C29.4013 142.862 32.052 140.734 36.42 140.734C41.5347 140.734 44.148 142.974 44.26 147.118H41.2733C41.124 144.28 39.556 143.31 36.42 143.31C33.844 143.31 32.388 144.354 32.388 146.147C32.388 147.902 33.5827 148.574 36.2707 149.132L37.988 149.468C42.7293 150.403 44.6333 152.008 44.6333 155.144C44.6333 158.766 41.7587 160.894 36.98 160.894C31.828 160.894 29.1027 158.69 28.804 154.323Z" fill="#FFFFFF"/>
<path fill-rule="evenodd" clip-rule="evenodd" d="M48.1048 154.323H51.1288C51.4661 157.198 52.8835 158.318 56.2808 158.318C59.3795 158.318 60.9101 157.31 60.9101 155.331C60.9101 153.575 59.8275 152.83 56.5048 152.195L54.7128 151.859C50.7181 151.112 48.7021 149.208 48.7021 146.184C48.7021 142.862 51.3541 140.734 55.7208 140.734C60.8355 140.734 63.4488 142.974 63.5608 147.118H60.5741C60.4248 144.28 58.8568 143.31 55.7208 143.31C53.1448 143.31 51.6888 144.354 51.6888 146.147C51.6888 147.902 52.8835 148.574 55.5715 149.132L57.2888 149.468C62.0301 150.403 63.9341 152.008 63.9341 155.144C63.9341 158.766 61.0595 160.894 56.2808 160.894C51.1288 160.894 48.4035 158.69 48.1048 154.323Z" fill="#FFFFFF"/>
<path fill-rule="evenodd" clip-rule="evenodd" d="M70.6542 149.171H82.0036C81.7049 145.848 79.6516 143.459 76.3662 143.459C73.2676 143.459 71.1396 145.437 70.6542 149.171ZM85.2142 151.86H70.5796C70.8782 156.077 73.0436 158.168 76.5156 158.168C79.1662 158.168 80.8836 156.975 81.6302 154.584H84.7289C83.7209 158.355 80.8836 160.893 76.4409 160.893C73.7902 160.893 71.6249 159.997 69.9822 158.168C68.3022 156.339 67.4809 153.912 67.4809 150.813C67.4809 147.789 68.3022 145.325 69.9449 143.496C71.5502 141.667 73.7156 140.733 76.3662 140.733C79.1289 140.733 81.2929 141.704 82.8622 143.608C84.4302 145.512 85.2142 147.939 85.2142 150.813V151.86Z" fill="#FFFFFF"/>
<path fill-rule="evenodd" clip-rule="evenodd" d="M97.5716 143.794H93.6142V156.301C93.6142 157.384 94.3609 157.944 95.8169 157.944H97.5716V160.445C96.7502 160.52 96.0409 160.557 95.4436 160.557C92.2329 160.557 90.6276 159.213 90.6276 156.562V143.794H87.4542V141.181H90.6276V135.73H93.6142V141.181H97.5716V143.794Z" fill="#FFFFFF"/>
<path fill-rule="evenodd" clip-rule="evenodd" d="M133.373 133.865H137.48V160.446H134.418V151.934C134.418 146.334 134.456 141.817 134.53 138.382C133.933 140.023 133.149 142.041 132.178 144.43L125.608 160.446H122.92L116.312 144.43C115.341 142.041 114.557 140.023 113.96 138.382C114.034 141.817 114.072 146.334 114.072 151.934V160.446H111.012V133.865H115.117L121.277 148.985C122.136 151.074 123.144 153.614 124.301 156.638C125.906 152.419 126.952 149.73 127.437 148.537L133.373 133.865Z" fill="#FFFFFF"/>
<path fill-rule="evenodd" clip-rule="evenodd" d="M153.458 156.899C154.653 155.965 155.25 154.584 155.25 152.829V150.552C154.69 151 153.832 151.261 152.712 151.373L149.912 151.709C146.589 152.12 145.432 153.204 145.432 155.181C145.432 157.16 146.701 158.355 149.277 158.355C150.882 158.355 152.264 157.871 153.458 156.899ZM160.29 158.019V160.445C159.805 160.52 159.245 160.557 158.648 160.557C156.632 160.557 155.549 159.624 155.4 157.795C154.056 159.848 151.965 160.893 149.128 160.893C144.909 160.893 142.333 158.84 142.333 155.257C142.333 151.784 144.722 149.768 149.464 149.283L152.226 148.984C154.242 148.76 155.25 147.865 155.25 146.333C155.25 144.243 154.093 143.311 150.92 143.311C147.597 143.311 146.253 144.28 146.066 147.117H143.08C143.341 142.863 145.954 140.733 150.92 140.733C155.736 140.733 158.162 142.6 158.162 146.333V157.087C158.162 157.72 158.498 158.019 159.208 158.019H160.29Z" fill="#FFFFFF"/>
<path fill-rule="evenodd" clip-rule="evenodd" d="M180.077 147.417V160.445H177.09V147.715C177.09 144.839 175.634 143.422 172.685 143.422C171.303 143.422 170.071 143.945 168.989 144.99C167.906 146.035 167.383 147.565 167.383 149.545V160.445H164.397V141.181H167.234V144.055C168.69 141.853 170.706 140.733 173.282 140.733C177.575 140.733 180.077 143.198 180.077 147.417Z" fill="#FFFFFF"/>
<path fill-rule="evenodd" clip-rule="evenodd" d="M196.055 156.899C197.25 155.965 197.847 154.584 197.847 152.829V150.552C197.287 151 196.429 151.261 195.309 151.373L192.509 151.709C189.186 152.12 188.029 153.204 188.029 155.181C188.029 157.16 189.298 158.355 191.874 158.355C193.479 158.355 194.861 157.871 196.055 156.899ZM202.887 158.019V160.445C202.402 160.52 201.842 160.557 201.245 160.557C199.229 160.557 198.146 159.624 197.997 157.795C196.653 159.848 194.562 160.893 191.725 160.893C187.506 160.893 184.93 158.84 184.93 155.257C184.93 151.784 187.319 149.768 192.061 149.283L194.823 148.984C196.839 148.76 197.847 147.865 197.847 146.333C197.847 144.243 196.69 143.311 193.517 143.311C190.194 143.311 188.85 144.28 188.663 147.117H185.677C185.938 142.863 188.551 140.733 193.517 140.733C198.333 140.733 200.759 142.6 200.759 146.333V157.087C200.759 157.72 201.095 158.019 201.805 158.019H202.887Z" fill="#FFFFFF"/>
<path fill-rule="evenodd" clip-rule="evenodd" d="M221.218 150.814C221.218 146.183 218.791 143.422 215.021 143.422C211.287 143.422 208.823 146.334 208.823 150.814C208.823 155.293 211.287 158.206 215.021 158.206C218.791 158.206 221.218 155.443 221.218 150.814ZM221.255 141.181H224.093V159.699C224.093 164.889 220.994 168.211 215.133 168.211C210.317 168.211 207.33 165.858 206.919 162.013H209.906C210.279 164.441 212.034 165.673 215.133 165.673C219.127 165.673 221.106 163.693 221.106 159.699V157.833C219.575 159.886 217.41 160.894 214.647 160.894C211.922 160.894 209.757 159.959 208.151 158.13C206.509 156.301 205.687 153.875 205.687 150.814C205.687 147.753 206.509 145.287 208.151 143.458C209.757 141.629 211.922 140.733 214.647 140.733C217.522 140.733 219.725 141.817 221.255 143.982V141.181Z" fill="#FFFFFF"/>
<path fill-rule="evenodd" clip-rule="evenodd" d="M232.306 149.171H243.655C243.357 145.848 241.303 143.459 238.018 143.459C234.919 143.459 232.791 145.437 232.306 149.171ZM246.866 151.86H232.231C232.53 156.077 234.695 158.168 238.167 158.168C240.818 158.168 242.535 156.975 243.282 154.584H246.381C245.373 158.355 242.535 160.893 238.093 160.893C235.442 160.893 233.277 159.997 231.634 158.168C229.954 156.339 229.133 153.912 229.133 150.813C229.133 147.789 229.954 145.325 231.597 143.496C233.202 141.667 235.367 140.733 238.018 140.733C240.781 140.733 242.946 141.704 244.514 143.608C246.082 145.512 246.866 147.939 246.866 150.813V151.86Z" fill="#FFFFFF"/>
<path fill-rule="evenodd" clip-rule="evenodd" d="M278.786 147.379V160.446H275.799V147.678C275.799 144.84 274.455 143.422 271.767 143.422C269.079 143.422 266.839 145.587 266.839 149.916V160.446H263.852V147.678C263.852 144.84 262.508 143.422 259.82 143.422C257.17 143.422 254.892 145.624 254.892 149.916V160.446H251.906V141.182H254.743V144.018C256.012 141.816 257.879 140.734 260.306 140.734C263.18 140.734 265.159 141.928 266.242 144.354C267.586 141.928 269.564 140.734 272.178 140.734C276.471 140.734 278.786 143.459 278.786 147.379Z" fill="#FFFFFF"/>
<path fill-rule="evenodd" clip-rule="evenodd" d="M286.999 149.171H298.349C298.05 145.848 295.997 143.459 292.711 143.459C289.613 143.459 287.485 145.437 286.999 149.171ZM301.559 151.86H286.925C287.223 156.077 289.389 158.168 292.861 158.168C295.511 158.168 297.229 156.975 297.975 154.584H301.074C300.066 158.355 297.229 160.893 292.786 160.893C290.135 160.893 287.97 159.997 286.327 158.168C284.647 156.339 283.826 153.912 283.826 150.813C283.826 147.789 284.647 145.325 286.29 143.496C287.895 141.667 290.061 140.733 292.711 140.733C295.474 140.733 297.638 141.704 299.207 143.608C300.775 145.512 301.559 147.939 301.559 150.813V151.86Z" fill="#FFFFFF"/>
<path fill-rule="evenodd" clip-rule="evenodd" d="M322.279 147.417V160.445H319.293V147.715C319.293 144.839 317.837 143.422 314.887 143.422C313.506 143.422 312.274 143.945 311.191 144.99C310.109 146.035 309.585 147.565 309.585 149.545V160.445H306.599V141.181H309.437V144.055C310.893 141.853 312.909 140.733 315.485 140.733C319.778 140.733 322.279 143.198 322.279 147.417Z" fill="#FFFFFF"/>
<path fill-rule="evenodd" clip-rule="evenodd" d="M335.943 143.794H331.986V156.301C331.986 157.384 332.733 157.944 334.189 157.944H335.943V160.445C335.122 160.52 334.413 160.557 333.815 160.557C330.605 160.557 328.999 159.213 328.999 156.562V143.794H325.826V141.181H328.999V135.73H331.986V141.181H335.943V143.794Z" fill="#FFFFFF"/>
<path fill-rule="evenodd" clip-rule="evenodd" d="M359.201 156.899C360.396 155.965 360.993 154.584 360.993 152.829V150.552C360.433 151 359.573 151.261 358.453 151.373L355.654 151.709C352.332 152.12 351.174 153.204 351.174 155.181C351.174 157.16 352.444 158.355 355.018 158.355C356.625 158.355 358.006 157.871 359.201 156.899ZM366.033 158.019V160.445C365.548 160.52 364.988 160.557 364.39 160.557C362.374 160.557 361.292 159.624 361.142 157.795C359.797 159.848 357.708 160.893 354.87 160.893C350.652 160.893 348.076 158.84 348.076 155.257C348.076 151.784 350.465 149.768 355.206 149.283L357.969 148.984C359.985 148.76 360.993 147.865 360.993 146.333C360.993 144.243 359.836 143.311 356.662 143.311C353.34 143.311 351.996 144.28 351.809 147.117H348.822C349.084 142.863 351.697 140.733 356.662 140.733C361.478 140.733 363.904 142.6 363.904 146.333V157.087C363.904 157.72 364.24 158.019 364.95 158.019H366.033Z" fill="#FFFFFF"/>
<path fill-rule="evenodd" clip-rule="evenodd" d="M385.82 147.417V160.445H382.833V147.715C382.833 144.839 381.377 143.422 378.428 143.422C377.046 143.422 375.814 143.945 374.733 144.99C373.649 146.035 373.125 147.565 373.125 149.545V160.445H370.14V141.181H372.977V144.055C374.433 141.853 376.449 140.733 379.025 140.733C383.318 140.733 385.82 143.198 385.82 147.417Z" fill="#FFFFFF"/>
<path fill-rule="evenodd" clip-rule="evenodd" d="M400.193 158.206C402.097 158.206 403.589 157.534 404.711 156.227C405.831 154.92 406.389 153.127 406.389 150.814C406.389 146.183 403.963 143.422 400.193 143.422C396.459 143.422 393.996 146.334 393.996 150.962C393.996 153.239 394.555 155.032 395.675 156.3C396.795 157.57 398.288 158.206 400.193 158.206ZM406.277 133.864H409.265V160.446H406.428V157.458C404.896 159.735 402.693 160.894 399.82 160.894C397.095 160.894 394.929 159.959 393.324 158.13C391.68 156.3 390.86 153.875 390.86 150.814C390.86 147.752 391.68 145.288 393.324 143.458C394.929 141.628 397.095 140.734 399.82 140.734C402.619 140.734 404.748 141.816 406.277 143.944V133.864Z" fill="#FFFFFF"/>
<path fill-rule="evenodd" clip-rule="evenodd" d="M426.325 157.272C424.047 154.771 422.891 151.373 422.891 147.155C422.891 142.936 424.047 139.539 426.325 137.037C428.602 134.536 431.553 133.267 435.173 133.267C440.737 133.267 445.178 136.291 446.485 142.413H443.311C442.154 138.045 439.093 136.141 435.173 136.141C432.449 136.141 430.282 137.112 428.639 139.053C426.998 141.032 426.177 143.72 426.177 147.155C426.177 150.589 426.998 153.277 428.639 155.219C430.282 157.197 432.449 158.168 435.173 158.168C437.227 158.168 439.019 157.533 440.625 156.264C442.23 155.032 443.162 153.203 443.498 150.776H446.634C446.298 154.061 445.066 156.6 442.863 158.355C440.661 160.147 438.123 161.043 435.173 161.043C431.553 161.043 428.602 159.773 426.325 157.272Z" fill="#FFFFFF"/>
<path fill-rule="evenodd" clip-rule="evenodd" d="M459.887 158.206C461.793 158.206 463.285 157.534 464.405 156.227C465.526 154.92 466.085 153.127 466.085 150.814C466.085 148.499 465.526 146.67 464.405 145.363C463.285 144.056 461.793 143.422 459.887 143.422C457.983 143.422 456.49 144.056 455.37 145.363C454.25 146.67 453.691 148.499 453.691 150.814C453.691 153.127 454.25 154.92 455.37 156.227C456.49 157.534 457.983 158.206 459.887 158.206ZM459.887 160.894C457.162 160.894 454.922 159.959 453.167 158.13C451.414 156.3 450.554 153.838 450.554 150.814C450.554 147.79 451.414 145.326 453.167 143.496C454.922 141.667 457.162 140.734 459.887 140.734C462.613 140.734 464.853 141.667 466.607 143.496C468.362 145.326 469.221 147.79 469.221 150.814C469.221 153.838 468.362 156.3 466.607 158.13C464.853 159.959 462.613 160.894 459.887 160.894Z" fill="#FFFFFF"/>
<path fill-rule="evenodd" clip-rule="evenodd" d="M489.941 147.417V160.445H486.954V147.715C486.954 144.839 485.498 143.422 482.549 143.422C481.167 143.422 479.935 143.945 478.853 144.99C477.77 146.035 477.247 147.565 477.247 149.545V160.445H474.261V141.181H477.098V144.055C478.554 141.853 480.57 140.733 483.146 140.733C487.439 140.733 489.941 143.198 489.941 147.417Z" fill="#FFFFFF"/>
<path fill-rule="evenodd" clip-rule="evenodd" d="M494.532 154.323H497.557C497.893 157.198 499.311 158.318 502.709 158.318C505.807 158.318 507.337 157.31 507.337 155.331C507.337 153.575 506.256 152.83 502.933 152.195L501.141 151.859C497.147 151.112 495.129 149.208 495.129 146.184C495.129 142.862 497.781 140.734 502.149 140.734C507.264 140.734 509.876 142.974 509.988 147.118H507.003C506.852 144.28 505.284 143.31 502.149 143.31C499.572 143.31 498.116 144.354 498.116 146.147C498.116 147.902 499.311 148.574 502 149.132L503.717 149.468C508.457 150.403 510.361 152.008 510.361 155.144C510.361 158.766 507.488 160.894 502.709 160.894C497.557 160.894 494.832 158.69 494.532 154.323Z" fill="#FFFFFF"/>
<path fill-rule="evenodd" clip-rule="evenodd" d="M527.534 141.181H530.521V160.445H527.684V157.57C526.229 159.773 524.212 160.893 521.636 160.893C517.342 160.893 514.841 158.43 514.841 154.21V141.181H517.829V153.912C517.829 156.786 519.285 158.206 522.233 158.206C523.616 158.206 524.846 157.682 525.929 156.638C527.012 155.593 527.534 154.061 527.534 152.084V141.181Z" fill="#FFFFFF"/>
<path fill-rule="evenodd" clip-rule="evenodd" d="M536.495 133.864H539.481V160.445H536.495V133.864Z" fill="#FFFFFF"/>
<path fill-rule="evenodd" clip-rule="evenodd" d="M553.891 143.794H549.934V156.301C549.934 157.384 550.68 157.944 552.138 157.944H553.891V160.445C553.071 160.52 552.362 160.557 551.763 160.557C548.552 160.557 546.948 159.213 546.948 156.562V143.794H543.774V141.181H546.948V135.73H549.934V141.181H553.891V143.794Z" fill="#FFFFFF"/>
<path fill-rule="evenodd" clip-rule="evenodd" d="M558.557 141.181H561.544V160.445H558.557V141.181ZM558.445 134.611H561.62V138.269H558.445V134.611Z" fill="#FFFFFF"/>
<path fill-rule="evenodd" clip-rule="evenodd" d="M583.199 147.417V160.445H580.212V147.715C580.212 144.839 578.756 143.422 575.805 143.422C574.425 143.422 573.193 143.945 572.111 144.99C571.027 146.035 570.504 147.565 570.504 149.545V160.445H567.517V141.181H570.355V144.055C571.811 141.853 573.828 140.733 576.403 140.733C580.696 140.733 583.199 143.198 583.199 147.417Z" fill="#FFFFFF"/>
<path fill-rule="evenodd" clip-rule="evenodd" d="M603.769 150.814C603.769 146.183 601.342 143.422 597.572 143.422C593.838 143.422 591.374 146.334 591.374 150.814C591.374 155.293 593.838 158.206 597.572 158.206C601.342 158.206 603.769 155.443 603.769 150.814ZM603.805 141.181H606.644V159.699C606.644 164.889 603.545 168.211 597.684 168.211C592.868 168.211 589.881 165.858 589.469 162.013H592.457C592.83 164.441 594.584 165.673 597.684 165.673C601.678 165.673 603.657 163.693 603.657 159.699V157.833C602.126 159.886 599.961 160.894 597.198 160.894C594.472 160.894 592.308 159.959 590.701 158.13C589.06 156.301 588.238 153.875 588.238 150.814C588.238 147.753 589.06 145.287 590.701 143.458C592.308 141.629 594.472 140.733 597.198 140.733C600.073 140.733 602.276 141.817 603.805 143.982V141.181Z" fill="#FFFFFF"/>
<path fill-rule="evenodd" clip-rule="evenodd" d="M601.141 3.08735H596.999V0.900684H608.073V3.08735H603.935V15.7914H601.141V3.08735Z" fill="#FFFFFF"/>
<path fill-rule="evenodd" clip-rule="evenodd" d="M625.413 0.901378V15.7907H622.644V4.54538L618.209 15.7907H617.315L612.795 4.54538V15.7907H610.297V0.901378H614.005L617.917 11.0614L621.749 0.901378H625.413Z" fill="#FFFFFF"/>
</g>
<defs>
<clipPath id="clip0_555_445">
<rect width="626" height="169" fill="white" transform="translate(0 0.375)"/>
</clipPath>
</defs>
</svg>
