<svg width="135" height="35" viewBox="0 0 135 35" fill="none" xmlns="http://www.w3.org/2000/svg">
<g clip-path="url(#clip0_551_445)">
<path fill-rule="evenodd" clip-rule="evenodd" d="M39.0236 32.5216V0.375H36.2871C36.2871 0.375 36.2871 0.426374 36.2361 0.375H35.772V15.2004C34.7391 14.2108 33.6552 13.4835 32.5713 13.0157C31.4874 12.5479 30.4036 12.3397 29.2687 12.3397C26.5858 12.3397 24.4181 13.278 22.7144 15.1491C21.0108 17.0229 20.3911 19.5726 20.3911 22.5361C20.3911 25.4996 21.0108 27.6329 22.7654 29.6095C24.52 31.532 26.7897 32.5216 29.5772 32.5216C30.9723 32.5216 32.1582 32.2106 33.1911 31.6374C34.224 31.0642 35.1013 30.2314 35.772 29.0876V32.5216H39.0236ZM32.8289 14.2649C33.8618 14.784 34.8437 15.5141 35.772 16.501L35.7693 16.5037V27.8952C35.5118 28.728 34.5808 29.5608 33.6015 30.2882C32.6733 31.0669 31.5384 31.4319 30.2989 31.4319C28.3377 31.4319 26.7897 30.6505 25.6549 29.039C24.469 27.4274 23.9003 25.0859 23.9003 22.0683C23.9003 19.3104 24.4154 17.1797 25.4993 15.7223C26.5831 14.2649 28.0292 13.5375 29.8348 13.5375C30.8677 13.5375 31.8469 13.7971 32.8289 14.2649Z" fill="#DEDED4"/>
<path fill-rule="evenodd" clip-rule="evenodd" d="M15.4517 32.2125V18.7985C15.4517 17.1924 15.2961 15.9999 14.9366 15.2239C14.628 14.4479 13.909 13.7746 12.8305 13.1527C11.803 12.5309 10.314 12.2199 8.36084 12.2199C6.09917 12.2199 4.45725 12.7904 3.22312 13.5664C3.49678 13.808 3.75344 14.0495 3.99311 14.2911C4.96968 13.6178 6.10185 13.2555 7.89938 13.2555C9.02887 13.2555 9.95447 13.4637 10.6225 13.9288C11.3415 14.3965 11.752 14.913 11.9586 15.4835C12.1142 16.054 12.2161 16.9842 12.2161 18.2793V19.2122L8.66937 20.6615C5.99722 21.7484 3.89116 22.8895 2.3485 24.0792C0.859506 25.2716 0.5 26.2017 0.5 27.8078C0.5 29.414 2.39948 32.2098 4.71212 32.2098C5.68869 32.2098 6.82086 31.9529 8.0523 31.3824C9.28375 30.8659 10.6708 30.0359 12.2134 28.9489V32.2125H15.4517ZM9.69423 21.2834L12.2134 20.2991L12.2108 20.3018V27.7078C11.0303 28.6406 9.95178 29.3653 9.02619 29.8304C8.10328 30.2954 7.27964 30.555 6.56062 30.555C5.73698 30.555 5.11992 30.2441 4.60749 29.6735C4.09506 29.103 3.8375 28.327 3.8375 27.3428C3.8375 24.9093 5.79064 22.8895 9.69423 21.2834Z" fill="#DEDED4"/>
<path d="M102.962 30.9001C102.769 31.403 102.672 31.9357 102.672 32.4765V32.4792H117.42V31.3516H106.876C106.873 31.2622 106.852 31.1388 106.826 30.9839C106.661 29.9871 106.278 27.6838 108.781 24.7001C109.851 23.4262 111.006 22.4743 112.21 21.4831C112.835 20.9679 113.474 20.4419 114.12 19.8547C114.265 19.7289 114.485 19.5599 114.754 19.3531C115.928 18.4527 118.033 16.8368 118.903 14.9633C119.164 14.4036 119.287 13.7898 119.287 13.1707V12.784H103.442V13.8574H115.998C115.95 14.7092 115.783 15.4149 115.528 16.0368C114.686 18.0917 113.277 19.2679 112.132 20.2089C108.615 23.0994 105.175 25.979 103.335 30.0078C103.187 30.3323 103.064 30.6351 102.962 30.9001Z" fill="#DEDED4"/>
<path fill-rule="evenodd" clip-rule="evenodd" d="M135.5 32.8562H132.262V29.5926C130.719 30.6796 129.332 31.5097 128.101 32.0261C126.869 32.5966 125.737 32.8535 124.76 32.8535C122.448 32.8535 120.548 30.0577 120.548 28.4516C120.548 26.8454 120.908 25.9153 122.397 24.7229C123.939 23.5332 126.046 22.3921 128.718 21.3052L132.264 19.8559V18.923C132.264 17.6279 132.162 16.6977 132.007 16.1272C131.8 15.5567 131.39 15.0403 130.671 14.5725C130.003 14.1074 129.077 13.8992 127.948 13.8992C126.15 13.8992 125.018 14.2615 124.041 14.9348C123.802 14.6933 123.545 14.4517 123.271 14.2102C124.506 13.4341 126.147 12.8636 128.409 12.8636C130.362 12.8636 131.851 13.1746 132.879 13.7965C133.957 14.4184 134.676 15.0916 134.985 15.8676C135.344 16.6437 135.5 17.8361 135.5 19.4422V32.8562ZM132.262 20.9429L129.743 21.9271C125.836 23.5332 123.886 25.553 123.886 27.9865C123.886 28.9707 124.143 29.7467 124.656 30.3172C125.171 30.8878 125.785 31.1987 126.609 31.1987C127.328 31.1987 128.152 30.9391 129.074 30.4741C130 30.009 131.079 29.2844 132.259 28.3515V20.9456L132.262 20.9429Z" fill="#DEDED4"/>
<path d="M61.8841 12.3537L53.0574 32.5221H51.7187L42.6774 12.3537H46.369L53.6987 28.8556L60.8136 12.3537H61.8841Z" fill="#DEDED4"/>
<path fill-rule="evenodd" clip-rule="evenodd" d="M77.2086 25.0161V19.0616C77.2086 17.4555 77.053 16.2631 76.6935 15.4871C76.385 14.711 75.666 14.0378 74.5874 13.4159C73.5599 12.794 72.0709 12.483 70.1178 12.483C67.8561 12.483 66.2142 13.0536 64.98 13.8296C65.2537 14.0711 65.5104 14.3127 65.75 14.5542C66.7266 13.8809 67.8588 13.5186 69.6563 13.5186C70.7858 13.5186 71.7114 13.7268 72.3794 14.1919C73.0984 14.6597 73.5089 15.1761 73.7155 15.7466C73.8711 16.3172 73.9731 17.2473 73.9731 18.5425V19.4753L70.4263 20.9246C67.7542 22.0116 65.6481 23.1526 64.1054 24.3423C62.6164 25.5347 62.2569 26.4649 62.2569 28.071C62.2569 29.6771 64.1564 32.4729 66.4691 32.4729C67.4456 32.4729 68.5778 32.216 69.8092 31.6455C71.0407 31.1291 72.4277 30.299 73.9704 29.212V32.4756H77.2086V26.336C78.617 24.9419 80.0591 23.3778 81.0537 22.2459C81.8854 21.2995 82.7654 20.3937 83.691 19.5366C83.7933 19.4417 84.021 19.2118 84.3274 18.9025C85.4438 17.7755 87.6043 15.5946 88.539 15.0535C89.5907 14.4452 90.5645 14.1126 91.4982 14.1126C92.4855 14.1126 93.3145 14.3749 93.9906 14.9508C94.6667 15.4754 95.0798 16.154 95.1845 16.8868C95.3401 17.6709 95.3937 18.8741 95.3937 20.5506V32.4801H98.7688V18.3009C98.7688 17.1491 98.6132 16.784 98.6132 16.784L98.6105 16.7786C98.4549 15.3131 97.5212 14.2667 96.534 13.588C95.6003 12.8553 94.3018 12.4876 92.743 12.4876C91.3426 12.4876 90.0441 12.8012 88.8502 13.4826C87.6563 14.164 86.5134 15.1563 85.4751 16.5164V12.4876H82.1537V19.8665C81.4566 20.5865 80.7847 21.2959 80.1278 21.9896C79.1325 23.0405 78.1715 24.0552 77.2086 25.0161ZM71.4511 21.5465L73.9704 20.5623L73.9677 20.565V27.9709C72.7872 28.9038 71.7087 29.6284 70.7831 30.0935C69.8602 30.5586 69.0366 30.8181 68.3176 30.8181C67.4939 30.8181 66.8768 30.5072 66.3644 29.9367C65.852 29.3661 65.5944 28.5901 65.5944 27.6059C65.5944 25.1724 67.5476 23.1526 71.4511 21.5465Z" fill="#DEDED4"/>
<path d="M82.1535 32.4747H85.4749V19.1472C85.4749 19.1472 83.0147 21.2805 82.1535 22.4784V32.4747Z" fill="#DEDED4"/>
</g>
<defs>
<clipPath id="clip0_551_445">
<rect width="135" height="33.75" fill="white" transform="translate(0 0.375)"/>
</clipPath>
</defs>
</svg>
