<svg width="72" height="72" viewBox="0 0 72 72" fill="none" xmlns="http://www.w3.org/2000/svg">
<path fill-rule="evenodd" clip-rule="evenodd" d="M36 72C55.8823 72 72 55.8823 72 36C72 16.1177 55.8823 0 36 0C16.1177 0 0 16.1177 0 36C0 55.8823 16.1177 72 36 72ZM47.3137 24.6863C45.8995 23.2721 45.8995 23.2721 45.8994 23.2722L36 33.1716L26.1006 23.2722C26.1005 23.2721 26.1005 23.2721 24.6863 24.6863C23.2721 26.1005 23.2724 26.1008 23.2724 26.1008L33.1716 36L23.2722 45.8994C23.2721 45.8995 23.2721 45.8995 24.6863 47.3137C26.1005 48.7279 26.1012 48.7273 26.1012 48.7272L36 38.8284L45.8994 48.7278C45.8995 48.7279 45.8995 48.7279 47.3137 47.3137C48.7279 45.8995 48.7276 45.8992 48.7276 45.8991L38.8284 36L48.7278 26.1006C48.7279 26.1005 48.7279 26.1005 47.3137 24.6863Z" fill="white"/>
</svg>
