<svg width="72" height="72" viewBox="0 0 72 72" fill="none" xmlns="http://www.w3.org/2000/svg">
<path fill-rule="evenodd" clip-rule="evenodd" d="M72 36C72 55.8823 55.8823 72 36 72C16.1177 72 0 55.8823 0 36C0 16.1177 16.1177 0 36 0C55.8823 0 72 16.1177 72 36ZM50.3062 36C47.9714 32.7434 43.0522 28 36 28C28.9478 28 24.0287 32.7434 21.6938 36C24.0287 39.2566 28.9478 44 36 44C43.0522 44 47.9714 39.2566 50.3062 36ZM54.5182 36.8712C54.8415 36.331 54.8415 35.669 54.5182 35.1288C52.3797 31.5556 46.0787 24 36 24C25.9213 24 19.6203 31.5556 17.4818 35.1288C17.1585 35.669 17.1585 36.331 17.4818 36.8712C19.6203 40.4444 25.9213 48 36 48C46.0787 48 52.3797 40.4444 54.5182 36.8712ZM41 36C41 38.7614 38.7614 41 36 41C33.2386 41 31 38.7614 31 36C31 33.2386 33.2386 31 36 31C38.7614 31 41 33.2386 41 36Z" fill="#FFFFFF"/>
</svg>
